<svg width="64" height="64" fill="none" xmlns="http://www.w3.org/2000/svg"><circle cx="32" cy="32" r="32" fill="#fff"/><path fill-rule="evenodd" clip-rule="evenodd" d="M36.7 24.577c-.574 1.15-.959 2.809-.959 4.696 0 1.886.385 3.545.96 4.695.605 1.21 1.255 1.577 1.677 1.577.42 0 1.072-.367 1.676-1.577.575-1.15.96-2.809.96-4.695 0-1.887-.385-3.546-.96-4.696C39.45 23.367 38.8 23 38.378 23c-.422 0-1.072.367-1.677 1.577zm-12.564 2.921l10.569-3.37c-.613 1.423-.964 3.222-.964 5.145 0 1.923.35 3.722.964 5.144l-10.569-3.37-.018-.006a1.564 1.564 0 01-1.11-1.663.922.922 0 000-.21 1.564 1.564 0 011.11-1.664l.018-.006zm-.599-1.908l13.824-4.408A2.908 2.908 0 0138.378 21c1.587 0 2.754 1.26 3.465 2.683.741 1.482 1.17 3.46 1.17 5.59s-.429 4.107-1.17 5.59c-.71 1.422-1.878 2.682-3.465 2.682-.361 0-.7-.065-1.017-.182l-5.417-1.727.883 2.667a2.818 2.818 0 01-1.574 3.632h-.002a2.818 2.818 0 01-3.678-1.599l-2.456-6.877-1.58-.504a3.564 3.564 0 01-2.527-3.682 3.563 3.563 0 012.527-3.683zm6.052 9.295l-2.075-.662 1.934 5.418a.818.818 0 101.489-.683l-1.348-4.073zm9.345-7.422c.445.498.692 1.142.694 1.81a2.718 2.718 0 01-2.417 2.696 11.416 11.416 0 01-.31-2.696c-.005-.908.1-1.814.31-2.697a2.72 2.72 0 011.723.887z" fill="#56CCF2"/></svg>