<svg width="64" height="64" fill="none" xmlns="http://www.w3.org/2000/svg"><circle cx="32" cy="32" r="32" fill="#fff"/><path fill-rule="evenodd" clip-rule="evenodd" d="M23.879 21.879A3 3 0 0126 21h8a1 1 0 01.707.293l6 6A1 1 0 0141 28v12a3 3 0 01-3 3H26a3 3 0 01-3-3V24a3 3 0 01.879-2.121zM26 23a1 1 0 00-1 1v16a1 1 0 001 1h12a1 1 0 001-1V28.414L33.586 23H26z" fill="#03D542"/><path fill-rule="evenodd" clip-rule="evenodd" d="M34 21a1 1 0 011 1v5h5a1 1 0 110 2h-6a1 1 0 01-1-1v-6a1 1 0 011-1zm-7 12a1 1 0 011-1h8a1 1 0 110 2h-8a1 1 0 01-1-1zm0 4a1 1 0 011-1h8a1 1 0 110 2h-8a1 1 0 01-1-1zm0-8a1 1 0 011-1h2a1 1 0 110 2h-2a1 1 0 01-1-1z" fill="#03D542"/></svg>