<svg width="64" height="64" fill="none" xmlns="http://www.w3.org/2000/svg"><circle cx="32" cy="32" r="32" fill="#fff"/><path fill-rule="evenodd" clip-rule="evenodd" d="M25 25a1 1 0 00-1 1v14a1 1 0 001 1h14a1 1 0 001-1V26a1 1 0 00-1-1H25zm-3 1a3 3 0 013-3h14a3 3 0 013 3v14a3 3 0 01-3 3H25a3 3 0 01-3-3V26z" fill="#F25656"/><path fill-rule="evenodd" clip-rule="evenodd" d="M36 21a1 1 0 011 1v4a1 1 0 11-2 0v-4a1 1 0 011-1zm-8 0a1 1 0 011 1v4a1 1 0 11-2 0v-4a1 1 0 011-1zm-6 9a1 1 0 011-1h18a1 1 0 110 2H23a1 1 0 01-1-1z" fill="#F25656"/></svg>